<svg xmlns="http://www.w3.org/2000/svg" viewBox="0 0 512 512">
  <defs>
    <linearGradient id="bg" x1="0" x2="1" y1="0" y2="1">
      <stop offset="0%" stop-color="#fafaf9"/>
      <stop offset="100%" stop-color="#e7e5e4"/>
    </linearGradient>
    <linearGradient id="accent" x1="0" x2="1" y1="0" y2="1">
      <stop offset="0%" stop-color="#0f766e"/>
      <stop offset="100%" stop-color="#14b8a6"/>
    </linearGradient>
  </defs>
  <rect width="512" height="512" rx="112" fill="url(#bg)"/>
  <circle cx="256" cy="256" r="170" fill="none" stroke="#0f172a" stroke-width="18" opacity=".08"/>
  <g transform="translate(0,0)">
    <path d="M168 174c0-38 30-68 68-68h22v55h-18c-9 0-16 7-16 16v8c0 9 7 16 16 16h38v92h-88c-12 0-22-10-22-22z"
          fill="#0f172a" opacity=".18"/>
    <path d="M144 160c0-38 30-68 68-68h22v55h-18c-9 0-16 7-16 16v8c0 9 7 16 16 16h38v92h-88c-12 0-22-10-22-22z"
          fill="#0f172a"/>
    <path d="M344 338c0 38-30 68-68 68h-22v-55h18c9 0 16-7 16-16v-8c0-9-7-16-16-16h-38v-92h88c12 0 22 10 22 22z"
          fill="url(#accent)"/>
  </g>
  <path d="M118 257c29-9 54-21 74-35" fill="none" stroke="#14b8a6" stroke-width="12" stroke-linecap="round"/>
  <path d="M320 289c22 0 46 6 72 18" fill="none" stroke="#0f172a" stroke-width="12" stroke-linecap="round" opacity=".48"/>
</svg>