<svg xmlns="http://www.w3.org/2000/svg" viewBox="0 0 512 512">
  <defs>
    <linearGradient id="bg3" x1="0" x2="1" y1="0" y2="1">
      <stop offset="0%" stop-color="#0b1020"/>
      <stop offset="100%" stop-color="#1e1b4b"/>
    </linearGradient>
    <linearGradient id="wave" x1="0" x2="1">
      <stop offset="0%" stop-color="#38bdf8"/>
      <stop offset="100%" stop-color="#22c55e"/>
    </linearGradient>
  </defs>
  <rect width="512" height="512" rx="112" fill="url(#bg3)"/>
  <g opacity=".16" transform="translate(16 16)">
    <path d="M114 274c0-78 64-142 142-142s142 64 142 142" fill="none" stroke="white" stroke-width="22" stroke-linecap="round"/>
    <rect x="110" y="262" width="58" height="116" rx="26" fill="white"/>
    <rect x="344" y="262" width="58" height="116" rx="26" fill="white"/>
  </g>
  <path d="M98 258c0-87 71-158 158-158s158 71 158 158" fill="none" stroke="white" stroke-width="22" stroke-linecap="round"/>
  <rect x="94" y="246" width="62" height="124" rx="28" fill="white"/>
  <rect x="356" y="246" width="62" height="124" rx="28" fill="white"/>
  <path d="M168 274l34-42 28 84 48-122 36 86 32-46" fill="none" stroke="url(#wave)" stroke-width="18" stroke-linecap="round" stroke-linejoin="round"/>
  <path d="M162 336c34 8 59 8 94 0s60-8 94 0" fill="none" stroke="white" opacity=".3" stroke-width="10" stroke-linecap="round"/>
</svg>